<?xml version="1.0" encoding="UTF-8"?>
<!DOCTYPE svg PUBLIC "-//W3C//DTD SVG 1.1//EN" "http://www.w3.org/Graphics/SVG/1.1/DTD/svg11.dtd">
<svg xmlns="http://www.w3.org/2000/svg" version="1.1" width="58px" height="16px" style="shape-rendering:geometricPrecision; text-rendering:geometricPrecision; image-rendering:optimizeQuality; fill-rule:evenodd; clip-rule:evenodd" xmlns:xlink="http://www.w3.org/1999/xlink">
<g><path style="opacity:1" fill="#050505" d="M -0.5,-0.5 C 4.83333,-0.5 10.1667,-0.5 15.5,-0.5C 6.94383,6.26613 7.6105,7.59947 17.5,3.5C 26.7012,7.96864 27.7012,6.63531 20.5,-0.5C 32.8333,-0.5 45.1667,-0.5 57.5,-0.5C 57.5,4.83333 57.5,10.1667 57.5,15.5C 45.1667,15.5 32.8333,15.5 20.5,15.5C 23.6663,13.846 25.333,11.1794 25.5,7.5C 22.646,7.07608 19.9793,6.07608 17.5,4.5C 9.58804,6.60397 8.58804,10.2706 14.5,15.5C 9.5,15.5 4.5,15.5 -0.5,15.5C -0.5,10.1667 -0.5,4.83333 -0.5,-0.5 Z"/></g>
<g><path style="opacity:1" fill="#d9d9d9" d="M 15.5,-0.5 C 17.1667,-0.5 18.8333,-0.5 20.5,-0.5C 27.7012,6.63531 26.7012,7.96864 17.5,3.5C 7.6105,7.59947 6.94383,6.26613 15.5,-0.5 Z"/></g>
<g><path style="opacity:1" fill="#efefef" d="M 20.5,15.5 C 18.5,15.5 16.5,15.5 14.5,15.5C 8.58804,10.2706 9.58804,6.60397 17.5,4.5C 19.9793,6.07608 22.646,7.07608 25.5,7.5C 25.333,11.1794 23.6663,13.846 20.5,15.5 Z"/></g>
<g><path style="opacity:1" fill="#666666" d="M 32.5,4.5 C 33.5,4.5 34.5,4.5 35.5,4.5C 35.005,7.99709 33.1717,8.99709 30,7.5C 29.6667,8.16667 29.3333,8.83333 29,9.5C 28.51,8.20677 28.3433,6.87344 28.5,5.5C 30.099,5.76781 31.4324,5.43448 32.5,4.5 Z"/></g>
<g><path style="opacity:1" fill="#545454" d="M 37.5,4.5 C 38.9311,4.88066 39.7645,5.88066 40,7.5C 42.3545,5.36301 45.1878,4.36301 48.5,4.5C 48.5,5.83333 48.5,7.16667 48.5,8.5C 44.8333,8.5 41.1667,8.5 37.5,8.5C 37.5,7.16667 37.5,5.83333 37.5,4.5 Z"/></g>
</svg>
